<svg xmlns="http://www.w3.org/2000/svg" width="64" height="58" viewBox="0 0 64 58">
    <path fill="#E50539" fill-rule="nonzero" d="M54.4 0H9.6A9.61 9.61 0 0 0 0 9.6v27.733a9.61 9.61 0 0 0 9.6 9.6h2.965l-1.877 9.387a1.067 1.067 0 0 0 1.542 1.153l20.034-10.54H54.4a9.61 9.61 0 0 0 9.6-9.6V9.6A9.61 9.61 0 0 0 54.4 0zm7.467 37.333A7.475 7.475 0 0 1 54.4 44.8H32c-.173 0-.344.042-.497.123L13.22 54.546l1.693-8.466a1.066 1.066 0 0 0-1.045-1.28H9.6a7.475 7.475 0 0 1-7.467-7.467V9.6A7.475 7.475 0 0 1 9.6 2.133h44.8A7.475 7.475 0 0 1 61.867 9.6v27.733z"/>
</svg>
