<svg xmlns="http://www.w3.org/2000/svg" width="80" height="74" viewBox="0 0 80 74">
    <path fill="#2E2691" fill-rule="nonzero" d="M79.628 69.191l-16.815-27.33a2.491 2.491 0 0 0-2.135-1.193 2.49 2.49 0 0 0-2.135 1.193L56.36 45.41a1.174 1.174 0 0 0 1.999 1.23l2.183-3.549c.012-.019.047-.076.136-.076a.15.15 0 0 1 .136.076l16.815 27.33c.014.022.05.08.004.161-.046.082-.114.082-.14.082h-9.312l-26.046-42.33a2.5 2.5 0 0 0-.93-.888v-7.965a10.85 10.85 0 0 0 2.86.378c2.676 0 5.183-.93 7.635-1.84 3.398-1.262 6.608-2.454 10.08-1.061a1.45 1.45 0 0 0 1.992-1.348V2.35a1.45 1.45 0 0 0-.883-1.337c-4.407-1.88-8.27-.445-12.006.941-3.5 1.3-6.805 2.526-10.404.918a1.174 1.174 0 0 0-1.653 1.071v.044c-.02.087-.031.178-.031.271v23.189a2.503 2.503 0 0 0-.93.886L25.499 48.431l-4.042-6.57a2.49 2.49 0 0 0-2.135-1.193 2.49 2.49 0 0 0-2.135 1.193L.37 69.191a2.51 2.51 0 0 0 2.136 3.82h74.986a2.509 2.509 0 0 0 2.135-3.82zM41.174 5.61c3.8 1.042 7.212-.225 10.526-1.455 3.28-1.218 6.386-2.37 9.724-1.194v11.404c-3.81-1.045-7.227.223-10.54 1.453-3.274 1.215-6.378 2.367-9.71 1.194V5.61zM14.575 70.664l4.027-6.544a1.174 1.174 0 0 0-2-1.23l-4.783 7.774H2.507c-.026 0-.094 0-.14-.081a.146.146 0 0 1 .004-.162l16.815-27.33c.012-.018.047-.075.136-.075.09 0 .125.057.136.076l4.663 7.578-4.656 7.568a1.174 1.174 0 0 0 2 1.23l18.4-29.905c.01-.018.046-.076.135-.076.09 0 .124.058.136.076l25.289 41.101h-50.85z"/>
</svg>
