<svg xmlns="http://www.w3.org/2000/svg" width="80" height="74" viewBox="0 0 80 74">
    <path fill="#2E2691" fill-rule="nonzero" d="M76.586 37.548H73.81a33.541 33.541 0 0 0-3.068-12.13 1.17 1.17 0 1 0-2.123.986 31.22 31.22 0 0 1 2.846 11.144H17.859a1.17 1.17 0 1 0 0 2.34h58.727c.592 0 1.073.481 1.073 1.073v1.429c0 .592-.48 1.073-1.073 1.073H3.414A1.074 1.074 0 0 1 2.34 42.39V40.96c0-.592.48-1.073 1.073-1.073h8.99a1.17 1.17 0 1 0 0-2.34H8.536c.516-7.774 3.85-15.006 9.469-20.476 5.415-5.271 12.412-8.374 19.89-8.866h.013c.318-.021.633-.037.945-.049.062-.001.123-.005.186-.006l.33-.009a31.933 31.933 0 0 1 1.469.005l.247.008c.215.007.43.018.644.03.113.006.227.012.34.02a31.558 31.558 0 0 1 23.948 13.638 1.17 1.17 0 0 0 1.93-1.325 33.902 33.902 0 0 0-23.15-14.38 5.698 5.698 0 0 0 .912-3.088c0-.636-.284-1.809-2.185-2.508C42.575.192 41.324 0 40 0c-1.324 0-2.576.193-3.525.542-1.9.7-2.184 1.872-2.184 2.508 0 1.114.327 2.178.907 3.082-7.07 1-13.627 4.201-18.826 9.262-6.074 5.913-9.662 13.742-10.181 22.153H3.414A3.418 3.418 0 0 0 0 40.961v1.429a3.418 3.418 0 0 0 3.414 3.414H16.02a14.5 14.5 0 0 0-1.797 1.45l-.024.023a1.06 1.06 0 0 0-.1.108L8.542 54.13a3.206 3.206 0 0 0-2.336-.447 3.209 3.209 0 0 0-2.068 1.361l-2.185 3.222a3.237 3.237 0 0 0 .86 4.488l14.95 10.158a3.21 3.21 0 0 0 2.425.5 3.21 3.21 0 0 0 2.067-1.36l2.186-3.222c.999-1.474.614-3.488-.86-4.488l-.085-.058c1.041-1.181 2.428-2.028 3.938-2.377 3.18-.737 6.923-.262 9.461.158 3.14.52 6.439.342 9.539-.514l4.309-1.19a22.184 22.184 0 0 0 7.904-4.016l7.398-6.552c1.261-.965 1.536-2.636 1.1-3.99h9.44A3.418 3.418 0 0 0 80 42.39v-1.429a3.418 3.418 0 0 0-3.414-3.413zM40 2.34c1.97 0 3.152.487 3.368.758a3.37 3.37 0 0 1-1.491 2.749c-.23-.012-.457-.022-.684-.03-.076-.003-.152-.007-.229-.009a32.306 32.306 0 0 0-1.98.002l-.402.014-.46.022a3.369 3.369 0 0 1-1.49-2.748c.216-.27 1.397-.758 3.368-.758zm8.392 44.027a3.86 3.86 0 0 0-.31-.564h11.226l-4.854 3.212-6.918 2.001-.235.006a3.981 3.981 0 0 0 1.091-4.655zm-12.69-.564l-1.689.352-1.305-.352h2.994zM22.504 67.517L20.32 70.74a.886.886 0 0 1-.57.376.886.886 0 0 1-.67-.138L4.128 60.819a.892.892 0 0 1-.236-1.238l2.185-3.222a.884.884 0 0 1 .74-.392c.176 0 .35.053.499.155l.807.548 14.144 9.609a.893.893 0 0 1 .237 1.238zm42.106-19.57c-.028.02-.055.041-.081.064l-7.406 6.56a19.86 19.86 0 0 1-7.002 3.534l-4.31 1.19a19.98 19.98 0 0 1-8.531.462c-2.736-.453-6.786-.96-10.373-.13-2.078.482-3.975 1.675-5.355 3.336l-11.061-7.514 5.368-6.52c2.031-1.917 4.606-3.056 7.072-3.125h.048c.764-.013 1.574.212 2.43.452.172.048.344.096.516.142l7.749 2.09c.177.048.363.054.544.016l10.148-2.116c.46-.095.944-.002 1.327.258.247.167.44.398.558.666.348.79.02 1.716-.758 2.116l-3.462 1.834a1.17 1.17 0 0 0 .573 2.204l5.136-.112a1.18 1.18 0 0 0 .3-.045l7.236-2.094c.115-.033.223-.083.322-.148l7.3-4.833c.613-.378 1.429-.69 1.863-.05.338.499.346 1.395-.151 1.762z"/>
</svg>
