<?xml version="1.0" encoding="UTF-8"?>
<svg width="80px" height="72px" viewBox="0 0 80 72" version="1.1" xmlns="http://www.w3.org/2000/svg" xmlns:xlink="http://www.w3.org/1999/xlink">
    <!-- Generator: Sketch 59.1 (86144) - https://sketch.com -->
    <title>icon-chat</title>
    <desc>Created with Sketch.</desc>
    <g id="Page-1" stroke="none" stroke-width="1" fill="none" fill-rule="evenodd">
        <g id="03-View-Game" transform="translate(-1019.000000, -1380.000000)" fill="#2E2691" fill-rule="nonzero">
            <g id="Group-6" transform="translate(1019.000000, 1380.000000)">
                <g id="icon-chat">
                    <path d="M40,15.625 C39.1375733,15.625 38.4375,16.3250733 38.4375,17.1875 C38.4375,18.0499267 39.1375733,18.75 40,18.75 C40.8624267,18.75 41.5625,18.0499267 41.5625,17.1875 C41.5625,16.3250733 40.8624267,15.625 40,15.625 Z" id="Shape"></path>
                    <path d="M14.0625,43.75 C14.9249267,43.75 15.625,43.0499267 15.625,42.1875 C15.625,41.3250733 14.9249267,40.625 14.0625,40.625 C13.2000733,40.625 12.5,41.3250733 12.5,42.1875 C12.5,43.0499267 13.2000733,43.75 14.0625,43.75 Z" id="Shape"></path>
                    <path d="M52.5,0 C38.4332275,0 26.8878173,9.69848625 25.9948731,21.9146728 C12.5982666,22.58667 0,32.2467041 0,45.3125 C0,50.772705 2.16064453,56.0632325 6.09375,60.2551269 C6.87194828,63.4631347 5.92712406,66.8634033 3.58276375,69.2077637 C3.13598625,69.6545409 3.00231937,70.3265381 3.24401859,70.9106445 C3.48571781,71.4941406 4.05517578,71.875 4.6875,71.875 C9.14367672,71.875 13.4381103,70.1275634 16.6290283,67.0483398 C19.7375488,68.1079102 23.793335,68.75 27.5,68.75 C41.5649414,68.75 53.1091309,59.053955 54.0045166,46.84021 C57.2760009,46.6949463 60.6787109,46.0906983 63.3709717,45.1733398 C66.5618897,48.2525634 70.8563233,50 75.3125,50 C75.9448242,50 76.5142822,49.6191406 76.7559814,49.0356445 C76.9976806,48.4515381 76.8640138,47.7795409 76.4172363,47.3327637 C74.0728759,44.9884033 73.1280517,41.5881347 73.90625,38.3801269 C77.8393555,34.1882325 80,28.897705 80,23.4375 C80,9.86145016 66.4312744,0 52.5,0 Z M27.5,65.625 C23.8122559,65.625 19.6099853,64.9011231 16.7950439,63.781128 C16.1920166,63.5406494 15.5029297,63.6987305 15.0640869,64.1778564 C13.1774903,66.2402344 10.7244873,67.6782227 8.05175781,68.3392334 C9.52453609,65.5175781 9.90051266,62.1911622 9.00451656,59.0393066 C8.93371578,58.7908936 8.80249031,58.5638428 8.62243656,58.3789062 C5.07751469,54.7277831 3.125,50.0872803 3.125,45.3125 C3.125,34.3017578 14.2871094,25 27.5,25 C39.9768066,25 50.9375,33.6761475 50.9375,45.3125 C50.9375,56.5130616 40.4235841,65.625 27.5,65.625 Z M71.3775634,36.5039062 C71.1975097,36.6894531 71.0662842,36.9165039 70.9954834,37.1643066 C70.0994873,40.3161622 70.4754639,43.6425781 71.9482422,46.4642334 C69.2755127,45.803833 66.8225097,44.3652344 64.9359131,42.3028564 C64.4970703,41.8243408 63.8079834,41.6656494 63.2049561,41.906128 C60.7653809,42.8765869 57.2851562,43.5485841 53.9996338,43.7109375 C53.5430908,37.8021241 50.5957031,32.2485352 45.5566406,28.125 L65.9375,28.125 C66.8005372,28.125 67.5,27.4255372 67.5,26.5625 C67.5,25.6994628 66.8005372,25 65.9375,25 L40.7562256,25 C37.2094727,23.19458 33.2269287,22.1417236 29.1278077,21.9207764 C30.0256347,11.4263916 40.1654053,3.125 52.5,3.125 C65.7128906,3.125 76.875,12.4267578 76.875,23.4375 C76.875,28.2122803 74.9224853,32.8527831 71.3775634,36.5039062 Z" id="Shape"></path>
                    <path d="M40,40.625 L20.3125,40.625 C19.4494628,40.625 18.75,41.3244628 18.75,42.1875 C18.75,43.0505372 19.4494628,43.75 20.3125,43.75 L40,43.75 C40.8630372,43.75 41.5625,43.0505372 41.5625,42.1875 C41.5625,41.3244628 40.8630372,40.625 40,40.625 Z" id="Shape"></path>
                    <path d="M40,50 L14.0625,50 C13.1994628,50 12.5,50.6994628 12.5,51.5625 C12.5,52.4255372 13.1994628,53.125 14.0625,53.125 L40,53.125 C40.8630372,53.125 41.5625,52.4255372 41.5625,51.5625 C41.5625,50.6994628 40.8630372,50 40,50 Z" id="Shape"></path>
                    <path d="M65.9375,15.625 L46.25,15.625 C45.3869628,15.625 44.6875,16.3244628 44.6875,17.1875 C44.6875,18.0505372 45.3869628,18.75 46.25,18.75 L65.9375,18.75 C66.8005372,18.75 67.5,18.0505372 67.5,17.1875 C67.5,16.3244628 66.8005372,15.625 65.9375,15.625 Z" id="Shape"></path>
                </g>
            </g>
        </g>
    </g>
</svg>