<svg xmlns="http://www.w3.org/2000/svg" width="67" height="90" viewBox="0 0 67 90">
    <g fill="#2E2691" fill-rule="evenodd">
        <path d="M11.827 44.416c0 12.01 9.722 21.746 21.71 21.746 11.993 0 21.713-9.737 21.713-21.746 0-12.012-9.72-21.75-21.712-21.75-11.989 0-21.71 9.738-21.71 21.75m3.39 0c0-10.119 8.218-18.351 18.32-18.351s18.32 8.232 18.32 18.351c0 10.117-8.218 18.348-18.32 18.348s-18.32-8.23-18.32-18.348"/>
        <path d="M34.815 1.697v11.605c0 .937-.759 1.696-1.694 1.696-16.115 0-29.73 13.74-29.73 30a1.696 1.696 0 1 1-3.39 0c0-17.529 14.221-32.423 31.423-33.35V1.697a1.695 1.695 0 1 1 3.391 0M66.24 44.574c0 17.613-13.947 32.047-31.425 32.927v10.798c0 .94-.76 1.7-1.695 1.7-.936 0-1.695-.76-1.695-1.7V75.845c0-.937.76-1.696 1.695-1.696 16.393 0 29.729-13.268 29.729-29.575 0-.939.759-1.7 1.696-1.7.936 0 1.695.761 1.695 1.7"/>
    </g>
</svg>
