<svg xmlns="http://www.w3.org/2000/svg" width="80" height="77" viewBox="0 0 80 77">
    <path fill="#E50539" fill-rule="evenodd" d="M39.882 60.438c.267 0 .534.063.777.194l20.623 10.883-3.94-23.057a1.682 1.682 0 0 1 .48-1.483l16.685-16.329-23.057-3.364a1.665 1.665 0 0 1-1.256-.916L39.882 5.39 29.571 26.366a1.662 1.662 0 0 1-1.257.916L5.259 30.646l16.683 16.329c.393.386.573.941.48 1.483l-3.94 23.057 20.623-10.883c.244-.13.51-.194.777-.194M63.5 76.257c-.265 0-.532-.066-.777-.196l-22.84-12.053-22.84 12.053c-.562.3-1.243.252-1.758-.126a1.68 1.68 0 0 1-.665-1.639l4.363-25.536L.504 30.677a1.68 1.68 0 0 1 .925-2.86l25.537-3.726L38.386.861c.561-1.148 2.431-1.148 2.993 0l11.42 23.23 25.536 3.726a1.68 1.68 0 0 1 .925 2.86L60.782 48.76l4.364 25.536a1.68 1.68 0 0 1-1.647 1.96"/>
</svg>
