<svg xmlns="http://www.w3.org/2000/svg" width="80" height="70" viewBox="0 0 80 70">
    <g fill="#2E2691" fill-rule="nonzero">
        <path d="M76 34.667h-1.333v-28A6.675 6.675 0 0 0 68 0H12a6.675 6.675 0 0 0-6.667 6.667v20H4a4 4 0 0 0-4 4v34.666a4 4 0 0 0 4 4h50.667c.736 0 1.333-.597 1.333-1.333a6.675 6.675 0 0 0-6.667-6.667h-4v-8h16v12a4 4 0 0 0 4 4H76a4 4 0 0 0 4-4V38.667a4 4 0 0 0-4-4zM29.333 65.333c0 .737-.597 1.334-1.333 1.334H4a1.333 1.333 0 0 1-1.333-1.334V64h26.666v1.333zm0-4H2.667V30.667c0-.737.597-1.334 1.333-1.334h24c.736 0 1.333.597 1.333 1.334v30.666zm20 2.667a4.008 4.008 0 0 1 3.772 2.667h-21.35c.158-.427.24-.878.245-1.334V64h17.333zM32 61.333v-8h2.667v8H32zm5.333 0v-8h5.334v8h-5.334zm24-10.666H32v-8h29.333v8zm0-12V40H32v-9.333a3.952 3.952 0 0 0-.456-1.815c.02-.019.047-.024.065-.044l13.2-13.2a1.333 1.333 0 0 0-1.885-1.885l-13.2 13.2c-.032.033-.045.076-.073.11A3.95 3.95 0 0 0 28 26.667H8v-20a4 4 0 0 1 4-4h56a4 4 0 0 1 4 4v28h-6.667a4 4 0 0 0-4 4zm16 26.666c0 .737-.597 1.334-1.333 1.334H65.333A1.333 1.333 0 0 1 64 65.333V64h13.333v1.333zm0-4H64V38.667c0-.737.597-1.334 1.333-1.334H76c.736 0 1.333.597 1.333 1.334v22.666z"/>
        <path d="M15.932 42.896a1.333 1.333 0 0 0-1.885 0L8.39 48.552a1.333 1.333 0 1 0 1.885 1.885l5.656-5.656c.238-.412-.24-1.196 0-1.885zM23.9 42.896a1.334 1.334 0 0 0-1.853 0l-5.656 5.656a1.333 1.333 0 1 0 1.885 1.885l5.656-5.656a1.333 1.333 0 0 0-.033-1.885zM52.91 13.724a1.334 1.334 0 0 0-1.853 0l-13.2 13.2a1.333 1.333 0 1 0 1.886 1.885l13.2-13.2a1.333 1.333 0 0 0-.033-1.885zM73.462 46.505c-.517-.499-1.336-.499-1.853 0l-3.77 3.771a1.333 1.333 0 1 0 1.885 1.885l3.77-3.77a1.333 1.333 0 0 0-.032-1.886zM40.027 45.333h-.014A1.333 1.333 0 0 0 40.027 48a1.333 1.333 0 0 0 0-2.667zM42.667 5.333h-5.334a1.333 1.333 0 0 0 0 2.667h5.334a1.333 1.333 0 0 0 0-2.667z"/>
    </g>
</svg>
