<?xml version="1.0" encoding="UTF-8"?>
<svg width="100px" height="100px" viewBox="0 0 100 100" version="1.1" xmlns="http://www.w3.org/2000/svg" xmlns:xlink="http://www.w3.org/1999/xlink">
    <!-- Generator: Sketch 60.1 (88133) - https://sketch.com -->
    <title>icon-backgammon</title>
    <desc>Created with Sketch.</desc>
    <defs>
        <linearGradient x1="9.96556713%" y1="0%" x2="97.7427662%" y2="0%" id="linearGradient-1">
            <stop stop-color="#B31438" offset="0%"></stop>
            <stop stop-color="#9F041B" offset="100%"></stop>
        </linearGradient>
    </defs>
    <g id="Export" stroke="none" stroke-width="1" fill="none" fill-rule="evenodd">
        <g id="New-Web-Export" transform="translate(-366.000000, -1487.000000)" fill="url(#linearGradient-1)" fill-rule="nonzero">
            <g id="icon-backgammon" transform="translate(366.000000, 1487.000000)">
                <path d="M17.2283721,76.7925581 C13.4169767,76.7925581 10.3162791,79.8932558 10.3162791,83.7044186 C10.3162791,87.5155814 13.4169767,90.6162791 17.2283721,90.6162791 C21.0397674,90.6162791 24.1404651,87.5155814 24.1404651,83.7044186 C24.1404651,79.8932558 21.0397674,76.7925581 17.2283721,76.7925581 Z M17.2283721,86.4302326 C15.7253488,86.4302326 14.5023256,85.2074419 14.5023256,83.7044186 C14.5023256,82.2013953 15.7251163,80.9786047 17.2283721,80.9786047 C18.7316279,80.9786047 19.9544186,82.2013953 19.9544186,83.7044186 C19.9544186,85.2074419 18.7316279,86.4302326 17.2283721,86.4302326 Z M65.1339535,41.1360465 C68.9451163,41.1360465 72.0455814,38.0353488 72.0455814,34.224186 C72.0455814,30.4130233 68.9448837,27.3123256 65.1339535,27.3123256 C61.3227907,27.3123256 58.222093,30.4130233 58.222093,34.224186 C58.222093,38.0353488 61.3227907,41.1360465 65.1339535,41.1360465 Z M65.1339535,31.4983721 C66.6367442,31.4983721 67.8595349,32.7211628 67.8595349,34.224186 C67.8595349,35.7272093 66.6367442,36.95 65.1339535,36.95 C63.6309302,36.95 62.4081395,35.7272093 62.4081395,34.224186 C62.4081395,32.7211628 63.6309302,31.4983721 65.1339535,31.4983721 Z M65.1339535,23.2051163 C68.9451163,23.2051163 72.0455814,20.1044186 72.0455814,16.2934884 C72.0455814,12.482093 68.9448837,9.38139535 65.1339535,9.38139535 C61.3227907,9.38139535 58.222093,12.482093 58.222093,16.2934884 C58.222093,20.1044186 61.3227907,23.2051163 65.1339535,23.2051163 Z M65.1339535,13.5674419 C66.6367442,13.5674419 67.8595349,14.7902326 67.8595349,16.2934884 C67.8595349,17.7962791 66.6367442,19.0190698 65.1339535,19.0190698 C63.6309302,19.0190698 62.4081395,17.7962791 62.4081395,16.2934884 C62.4081395,14.7902326 63.6309302,13.5674419 65.1339535,13.5674419 Z M97.904186,0.00011627907 L42.68,0.00011627907 C42.6555814,0.00011627907 42.6311628,0.00011627907 42.6067442,0.00011627907 L27.1197674,0.00011627907 C27.0951163,0.00011627907 27.0706977,0.00011627907 27.045814,0.00011627907 L25.0462791,0.00011627907 C25.0216279,0.00011627907 24.9969767,0.00011627907 24.9723256,0.00011627907 L9.48534884,0.00011627907 C9.46069767,0.00011627907 9.43604651,0.00011627907 9.41139535,0.00011627907 L2.09348837,0.00011627907 C0.93744186,0.00011627907 0.000465116279,0.93744186 0.000465116279,2.09348837 L0.000465116279,97.904186 C0.000465116279,99.0602326 0.93744186,99.9975581 2.09348837,99.9975581 L57.3167442,99.9975581 C57.3413953,99.9975581 57.3660465,99.9975581 57.3906977,99.9975581 L72.8776744,99.9975581 C72.9023256,99.9975581 72.9267442,99.9975581 72.9516279,99.9975581 L74.9511628,99.9975581 C74.9634884,99.9975581 74.975814,99.9975581 74.9881395,99.9975581 C75.0004651,99.9975581 75.0127907,99.9975581 75.0251163,99.9975581 L90.512093,99.9975581 C90.5362791,99.9975581 90.5609302,99.9975581 90.5851163,99.9975581 L97.9039535,99.9975581 C99.06,99.9975581 99.9969768,99.0602326 99.9969768,97.904186 L99.9969768,2.09348837 C99.9969768,0.93744186 99.0602326,0.00011627907 97.904186,0.00011627907 Z M40.1662791,4.18651163 L34.8632558,35.3237209 L29.56,4.18651163 L40.1662791,4.18651163 Z M22.532093,4.18651163 L17.2288372,35.324186 L11.9253488,4.18651163 L22.532093,4.18651163 Z M47.9055814,95.8111628 L4.18651163,95.8111628 L4.18651163,4.18651163 L7.67906977,4.18651163 L14.5216279,44.3623256 C14.6927907,45.3681395 15.5644186,46.1039535 16.5848837,46.1039535 L17.8723256,46.1039535 C18.8927907,46.1039535 19.7644186,45.3681395 19.9355814,44.3623256 L26.0460465,8.48697674 L32.1562791,44.3623256 C32.3274419,45.3681395 33.1990698,46.1039535 34.2195349,46.1039535 L35.5067442,46.1039535 C36.5272093,46.1039535 37.3988372,45.3681395 37.57,44.3623256 L44.4123256,4.18651163 L47.9055814,4.18651163 L47.9055814,95.8111628 L47.9055814,95.8111628 Z M59.8309302,95.8111628 L65.134186,64.674186 L70.4374419,95.8111628 L59.8309302,95.8111628 Z M77.4653488,95.8111628 L82.7686047,64.674186 L88.0716279,95.8111628 L77.4653488,95.8111628 Z M95.8111628,95.8111628 L92.317907,95.8111628 L85.4755814,55.6353488 C85.3044186,54.6295349 84.4327907,53.8937209 83.4123256,53.8937209 L82.1251163,53.8937209 C81.1046512,53.8937209 80.2330233,54.6295349 80.0618605,55.6353488 L73.9513953,91.5109302 L67.8409302,55.6353488 C67.6697674,54.6295349 66.7981395,53.8937209 65.7776744,53.8937209 L64.4906977,53.8937209 C63.4704651,53.8937209 62.5986047,54.6295349 62.4274419,55.6353488 L55.5846512,95.8111628 L52.0916279,95.8111628 L52.0916279,4.18651163 L95.8111628,4.18651163 L95.8111628,95.8111628 L95.8111628,95.8111628 Z M34.8630233,76.7925581 C31.0516279,76.7925581 27.9509302,79.8932558 27.9509302,83.7044186 C27.9509302,87.5155814 31.0516279,90.6162791 34.8630233,90.6162791 C38.6744186,90.6162791 41.7751163,87.5155814 41.7751163,83.7044186 C41.7751163,79.8932558 38.674186,76.7925581 34.8630233,76.7925581 Z M34.8630233,86.4302326 C33.36,86.4302326 32.1369767,85.2074419 32.1369767,83.7044186 C32.1369767,82.2013953 33.3597674,80.9786047 34.8630233,80.9786047 C36.3662791,80.9786047 37.5890698,82.2013953 37.5890698,83.7044186 C37.5890698,85.2074419 36.3660465,86.4302326 34.8630233,86.4302326 Z M82.7683721,23.2051163 C86.5795349,23.2051163 89.6802326,20.1044186 89.6802326,16.2934884 C89.6802326,12.482093 86.5795349,9.38139535 82.7683721,9.38139535 C78.9572093,9.38139535 75.8567442,12.482093 75.8567442,16.2934884 C75.8567442,20.1044186 78.9572093,23.2051163 82.7683721,23.2051163 Z M82.7683721,13.5674419 C84.2713953,13.5674419 85.494186,14.7902326 85.494186,16.2934884 C85.494186,17.7962791 84.2713953,19.0190698 82.7683721,19.0190698 C81.2655814,19.0190698 80.0427907,17.7962791 80.0427907,16.2934884 C80.0427907,14.7902326 81.2655814,13.5674419 82.7683721,13.5674419 Z M17.2283721,58.8616279 C13.4169767,58.8616279 10.3162791,61.9623256 10.3162791,65.7734884 C10.3162791,69.5846512 13.4169767,72.6853488 17.2283721,72.6853488 C21.0397674,72.6853488 24.1404651,69.5846512 24.1404651,65.7734884 C24.1404651,61.9623256 21.0397674,58.8616279 17.2283721,58.8616279 Z M17.2283721,68.4993023 C15.7253488,68.4993023 14.5023256,67.2765116 14.5023256,65.7734884 C14.5023256,64.2704651 15.7251163,63.0476744 17.2283721,63.0476744 C18.7316279,63.0476744 19.9544186,64.2704651 19.9544186,65.7734884 C19.9544186,67.2765116 18.7316279,68.4993023 17.2283721,68.4993023 Z" id="XMLID_808_"></path>
            </g>
        </g>
    </g>
</svg>