<?xml version="1.0" encoding="UTF-8"?>
<svg width="72px" height="120px" viewBox="0 0 72 120" version="1.1" xmlns="http://www.w3.org/2000/svg" xmlns:xlink="http://www.w3.org/1999/xlink">
    <!-- Generator: Sketch 60.1 (88133) - https://sketch.com -->
    <title>icon-poker</title>
    <desc>Created with Sketch.</desc>
    <g id="Export" stroke="none" stroke-width="1" fill="none" fill-rule="evenodd">
        <g id="New-Web-Export" transform="translate(-182.000000, -1487.000000)" fill="#0091D6" fill-rule="nonzero">
            <g id="icon-poker" transform="translate(182.000000, 1487.000000)">
                <path d="M65.5116959,97.3099415 L5.61769006,97.3099415 C2.52284351,97.3099415 0.00365497076,94.790753 0.00365497076,91.6959064 L0.00365497076,5.61403509 C0.00365497076,2.51918854 2.52284351,0 5.61769006,0 L65.5116959,0 C68.6074561,0 71.125731,2.51918854 71.125731,5.61403509 L71.125731,91.6959064 C71.125731,94.790753 68.6074561,97.3099415 65.5116959,97.3099415 Z M5.61769006,3.74269006 C4.5851607,3.74269006 3.74634503,4.58333333 3.74634503,5.61403509 L3.74634503,91.6959064 C3.74634503,92.7284356 4.5851607,93.5672515 5.61769006,93.5672515 L65.5116959,93.5672515 C66.5451389,93.5672515 67.3830409,92.7284356 67.3830409,91.6959064 L67.3830409,5.61403509 C67.3830409,4.58333333 66.5451389,3.74269006 65.5116959,3.74269006 L5.61769006,3.74269006 Z" id="Shape"></path>
                <path d="M65.5116959,104.795322 L5.61769006,104.795322 C2.52284351,104.795322 0.00365497076,102.276133 0.00365497076,99.1812865 L0.00365497076,91.7461623 C0.00365497076,90.7118056 0.840643275,89.8748173 1.875,89.8748173 C2.91027041,89.8748173 3.74634503,90.7118056 3.74634503,91.7461623 L3.74634503,99.1812865 C3.74634503,100.213816 4.5851607,101.052632 5.61769006,101.052632 L65.5116959,101.052632 C66.5451389,101.052632 67.3830409,100.213816 67.3830409,99.1812865 L67.3830409,91.7461623 C67.3830409,90.7118056 68.2200292,89.8748173 69.254386,89.8748173 C70.2896564,89.8748173 71.125731,90.7118056 71.125731,91.7461623 L71.125731,99.1812865 C71.125731,102.276133 68.6074561,104.795322 65.5116959,104.795322 Z" id="Shape"></path>
                <path d="M65.5116959,112.257858 L5.61769006,112.257858 C2.52284351,112.257858 0.00365497076,109.739583 0.00365497076,106.643823 L0.00365497076,99.2059577 C0.00365497076,98.1706873 0.840643275,97.3346126 1.875,97.3346126 C2.91027041,97.3346126 3.74634503,98.1706873 3.74634503,99.2059577 L3.74634503,106.643823 C3.74634503,107.677266 4.5851607,108.515168 5.61769006,108.515168 L65.5116959,108.515168 C66.5451389,108.515168 67.3830409,107.677266 67.3830409,106.643823 L67.3830409,99.2059577 C67.3830409,98.1706873 68.2200292,97.3346126 69.254386,97.3346126 C70.2896564,97.3346126 71.125731,98.1706873 71.125731,99.2059577 L71.125731,106.643823 C71.125731,109.741411 68.6074561,112.257858 65.5116959,112.257858 Z" id="Shape"></path>
                <path d="M65.5116959,119.773392 L5.61769006,119.773392 C2.52284351,119.773392 0.00365497076,117.255117 0.00365497076,114.159357 L0.00365497076,106.670322 C0.00365497076,105.635965 0.840643275,104.798977 1.875,104.798977 C2.91027041,104.798977 3.74634503,105.635965 3.74634503,106.670322 L3.74634503,114.159357 C3.74634503,115.1928 4.5851607,116.030702 5.61769006,116.030702 L65.5116959,116.030702 C66.5451389,116.030702 67.3830409,115.1928 67.3830409,114.159357 L67.3830409,106.670322 C67.3830409,105.635965 68.2200292,104.798977 69.254386,104.798977 C70.2896564,104.798977 71.125731,105.635965 71.125731,106.670322 L71.125731,114.159357 C71.125731,117.255117 68.6074561,119.773392 65.5116959,119.773392 Z" id="Shape"></path>
                <path d="M42.5374634,65.5025586 C39.9926901,65.5025586 37.571272,64.698465 35.5628655,63.2081506 C33.5553729,64.698465 31.1321273,65.5025586 28.58644,65.5025586 C25.4504751,65.5025586 22.5027413,64.282712 20.2850877,62.0632309 C15.7081506,57.4881214 15.7081506,50.0402047 20.2850877,45.4623537 L34.2361111,31.5095029 C34.7002924,31.0434943 35.3819443,30.8607457 36.0142545,31.0179092 C36.3432019,31.1001462 36.6502194,31.2719298 36.8896199,31.5113305 L50.8406433,45.4641813 C55.412098,50.0438596 55.4102704,57.4899488 50.8369883,62.0650585 C48.6211623,64.282712 45.6716009,65.5025586 42.5374634,65.5025586 L42.5374634,65.5025586 Z M35.5628655,58.8724416 C36.0416667,58.8724416 36.5213815,59.0561039 36.8859649,59.4188596 C38.3963815,60.9274489 40.4020468,61.7580409 42.5374634,61.7580409 C44.6747076,61.7580409 46.6822002,60.9274489 48.1907895,59.417032 C51.3066522,56.2993422 51.3084795,51.2298975 48.1944444,48.1103801 L35.5610381,35.4769736 L22.9312865,48.1067251 C19.8135965,51.2262428 19.8135965,56.2993422 22.9312865,59.417032 C24.4417032,60.9274489 26.4491958,61.7580409 28.5846126,61.7580409 L28.58644,61.7580409 C30.7218568,61.7580409 32.7275219,60.9274489 34.2397661,59.4188596 C34.6052632,59.0561039 35.0840643,58.8724416 35.5628655,58.8724416 Z" id="Shape"></path>
                <path d="M15.9813595,19.7797881 C15.2997076,19.7797881 14.6418129,19.6326756 14.0423977,19.3548978 C12.3547149,20.1334063 10.1927998,19.7816154 8.84411556,18.4311039 C7.04769731,16.6328582 7.04769731,13.7079677 8.84046058,11.9115497 L12.7192982,8.0354531 C13.292215,7.46436398 14.162098,7.32273404 14.8830409,7.68731719 C15.0621345,7.77686409 15.2293495,7.89747813 15.369152,8.0391083 L19.2434211,11.9133773 C21.0398391,13.7079677 21.0398391,16.6328582 19.2452487,18.4311039 C18.3726243,19.3009869 17.2130849,19.7797881 15.9813595,19.7797881 Z M14.0423977,15.2348318 C14.5211988,15.2348318 15.0009137,15.4175804 15.3636697,15.7812501 C15.5866227,16.001462 15.8461258,16.0352704 15.9813595,16.0352704 C16.1156798,16.0352704 16.3760964,16.001462 16.5990498,15.7812501 C16.9334795,15.4440791 16.9353071,14.8940058 16.5972222,14.5550073 L14.0423977,12.0010966 L11.4884868,14.5531799 C11.1513158,14.8903509 11.1494882,15.4440791 11.4903144,15.7830774 C11.7086989,16.001462 11.9691156,16.0352704 12.1016082,16.0352704 C12.2368421,16.0352704 12.4990863,16.001462 12.7229532,15.7775951 C13.0884503,15.415753 13.5654241,15.2348318 14.0423977,15.2348318 Z" id="Shape"></path>
                <path d="M35.5628655,72.9934211 C34.5285088,72.9934211 33.6915205,72.1573464 33.6915205,71.122076 L33.6915205,60.745614 C33.6915205,59.7130849 34.5285088,58.874269 35.5628655,58.874269 C36.5981359,58.874269 37.4342105,59.7130849 37.4342105,60.745614 L37.4342105,71.122076 C37.4342105,72.1573464 36.5981359,72.9934211 35.5628655,72.9934211 Z" id="Shape"></path>
                <path d="M44.9159357,72.9934211 L26.2061404,72.9934211 C25.1717836,72.9934211 24.3347953,72.1573464 24.3347953,71.122076 C24.3347953,70.0877193 25.1717836,69.250731 26.2061404,69.250731 L44.9159357,69.250731 C45.9512061,69.250731 46.7872807,70.0877193 46.7872807,71.122076 C46.7872807,72.1573464 45.9512061,72.9934211 44.9159357,72.9934211 Z" id="Shape"></path>
                <path d="M22.4524854,97.3099415 C21.417215,97.3099415 20.5811404,96.4738669 20.5811404,95.4385965 C20.5811404,89.2406798 25.6222587,84.1995614 31.8201754,84.1995614 C32.8554458,84.1995614 33.6915205,85.035636 33.6915205,86.0709064 C33.6915205,87.1052632 32.8554458,87.9422515 31.8201754,87.9422515 C27.6864035,87.9422515 24.3238304,91.3048246 24.3238304,95.4385965 C24.3238304,96.4738669 23.4868421,97.3099415 22.4524854,97.3099415 Z" id="Shape"></path>
                <path d="M46.7836257,87.9568713 C45.7483553,87.9568713 44.9122807,87.1207967 44.9122807,86.0855263 C44.9122807,79.8930922 49.9479167,74.8574561 56.1403509,74.8574561 C57.1756213,74.8574561 58.0116959,75.6944444 58.0116959,76.7288012 C58.0116959,77.7640716 57.1756213,78.6001462 56.1403509,78.6001462 C52.0120613,78.6001462 48.6549708,81.957237 48.6549708,86.0855263 C48.6549708,87.1207967 47.8188961,87.9568713 46.7836257,87.9568713 Z" id="Shape"></path>
                <path d="M69.2580409,78.6001462 L56.1440058,78.6001462 C55.1096491,78.6001462 54.2726608,77.7640716 54.2726608,76.7288012 C54.2726608,75.6944444 55.1096491,74.8574561 56.1440058,74.8574561 L69.2580409,74.8574561 C70.2933113,74.8574561 71.129386,75.6944444 71.129386,76.7288012 C71.129386,77.7640716 70.2933113,78.6001462 69.2580409,78.6001462 Z" id="Shape"></path>
                <path d="M52.4013158,87.9568713 L31.7982456,87.9568713 C30.7629752,87.9568713 29.9269006,87.1207967 29.9269006,86.0855263 C29.9269006,85.0511696 30.7629752,84.2141813 31.7982456,84.2141813 L52.4013158,84.2141813 C53.4365862,84.2141813 54.2726608,85.0511696 54.2726608,86.0855263 C54.2726608,87.1207967 53.4365862,87.9568713 52.4013158,87.9568713 Z" id="Shape"></path>
                <path d="M59.8866959,106.663012 C58.8523392,106.663012 58.0153509,105.826023 58.0153509,104.791667 L58.0153509,95.4385965 C58.0153509,94.4033261 58.8523392,93.5672515 59.8866959,93.5672515 C60.9219663,93.5672515 61.7580409,94.4033261 61.7580409,95.4385965 L61.7580409,104.791667 C61.7580409,105.826023 60.9219663,106.663012 59.8866959,106.663012 Z" id="Shape"></path>
                <path d="M50.5299708,117.902047 C49.495614,117.902047 48.6586257,117.065972 48.6586257,116.030702 L48.6586257,95.4385965 C48.6586257,94.4033261 49.495614,93.5672515 50.5299708,93.5672515 C51.5652412,93.5672515 52.4013158,94.4033261 52.4013158,95.4385965 L52.4013158,116.030702 C52.4013158,117.065972 51.5652412,117.902047 50.5299708,117.902047 Z" id="Shape"></path>
                <path d="M41.1732456,108.534357 C40.1388889,108.534357 39.3019006,107.697368 39.3019006,106.663012 L39.3019006,95.4385965 C39.3019006,94.4033261 40.1388889,93.5672515 41.1732456,93.5672515 C42.208516,93.5672515 43.0445906,94.4033261 43.0445906,95.4385965 L43.0445906,106.663012 C43.0445906,107.697368 42.208516,108.534357 41.1732456,108.534357 Z" id="Shape"></path>
                <path d="M31.8165205,114.155702 C30.7821637,114.155702 29.9451754,113.319627 29.9451754,112.284357 L29.9451754,95.4385965 C29.9451754,94.4033261 30.7821637,93.5672515 31.8165205,93.5672515 C32.8517909,93.5672515 33.6878655,94.4033261 33.6878655,95.4385965 L33.6878655,112.284357 C33.6878655,113.319627 32.8517909,114.155702 31.8165205,114.155702 Z" id="Shape"></path>
                <path d="M22.4524854,101.041667 C21.417215,101.041667 20.5811404,100.204678 20.5811404,99.1703216 L20.5811404,95.4385965 C20.5811404,94.4033261 21.417215,93.5672515 22.4524854,93.5672515 C23.4868421,93.5672515 24.3238304,94.4033261 24.3238304,95.4385965 L24.3238304,99.1703216 C24.3238304,100.204678 23.4868421,101.041667 22.4524854,101.041667 Z" id="Shape"></path>
            </g>
        </g>
    </g>
</svg>