<?xml version="1.0" encoding="UTF-8"?>
<svg width="98px" height="99px" viewBox="0 0 98 99" version="1.1" xmlns="http://www.w3.org/2000/svg" xmlns:xlink="http://www.w3.org/1999/xlink">
    <!-- Generator: Sketch 60.1 (88133) - https://sketch.com -->
    <title>icon-mi</title>
    <desc>Created with Sketch.</desc>
    <g id="Export" stroke="none" stroke-width="1" fill="none" fill-rule="evenodd">
        <g id="New-Web-Export" transform="translate(-788.000000, -315.000000)">
            <g id="icon-mi" transform="translate(790.000000, 317.000000)">
                <circle id="Oval-2" stroke="#0752A1" stroke-width="3" cx="69.3548387" cy="75.8064516" r="19.4677419"></circle>
                <path d="M80.113627,64.1767285 L93.2426593,64.6409099 L93.2426593,56.6849737 C93.2426593,56.4088313 93.0188017,56.1849737 92.7426593,56.1849737 L80.613627,56.1849737 C80.3374847,56.1849737 80.113627,56.4088313 80.113627,56.6849737 L80.113627,64.1767285 Z" id="Rectangle" stroke="#0752A1" stroke-width="3" transform="translate(86.678143, 60.439927) rotate(-315.000000) translate(-86.678143, -60.439927) "></path>
                <path d="M69.1789752,64.3605365 C69.1149303,64.3605365 69.0501183,64.3547839 68.9872239,64.3417449 C68.9247129,64.3290893 68.8625854,64.3106812 68.802759,64.286137 C68.7440831,64.2615928 68.6869412,64.2309126 68.6340178,64.1956302 C68.5799439,64.1591975 68.529705,64.1181627 68.4848352,64.0729093 C68.4395818,64.027656 68.3981636,63.9778006 68.3628813,63.9237267 C68.326832,63.8708034 68.2973024,63.8136615 68.2727582,63.7549855 C68.248214,63.6947756 68.2286553,63.6341821 68.2156162,63.5712877 C68.2041112,63.5072427 68.1972081,63.4435812 68.1972081,63.3787693 C68.1972081,63.3151078 68.2041112,63.2502958 68.2156162,63.1874014 C68.2286553,63.1245069 68.248214,63.062763 68.2727582,63.0037036 C68.2973024,62.9450276 68.326832,62.8871187 68.3628813,62.8338118 C68.3981636,62.7808884 68.4395818,62.7298825 68.4848352,62.6846293 C68.529705,62.6393759 68.5799439,62.5983411 68.6340178,62.5630588 C68.6869412,62.5277765 68.7440831,62.4970963 68.802759,62.4725521 C68.8625854,62.448008 68.9247129,62.4295998 68.9872239,62.4165608 C69.1141633,62.3912495 69.2437873,62.3912495 69.3703432,62.4165608 C69.4332376,62.4295998 69.4949815,62.448008 69.554041,62.4725521 C69.6138675,62.4970963 69.6706259,62.5277765 69.7235493,62.5630588 C69.7776232,62.5983411 69.8278621,62.6393759 69.8731154,62.6846293 C69.9179852,62.7298825 69.9594035,62.7808884 69.9946857,62.8338118 C70.029968,62.8871187 70.0602647,62.9450276 70.0848089,63.0037036 C70.1093531,63.062763 70.1281447,63.1245069 70.1408004,63.1874014 C70.1538394,63.2502958 70.1607424,63.3151078 70.1607424,63.3787693 C70.1607424,63.4435812 70.1538394,63.5072427 70.1408004,63.5712877 C70.1281447,63.6341821 70.1093531,63.6947756 70.0848089,63.7549855 C70.0602647,63.8136615 70.029968,63.8708034 69.9946857,63.9237267 C69.9594035,63.9778006 69.9179852,64.027656 69.8731154,64.0729093 C69.8278621,64.1181627 69.7776232,64.1591975 69.7235493,64.1956302 C69.6706259,64.2309126 69.6138675,64.2615928 69.554041,64.286137 C69.4949815,64.3106812 69.4332376,64.3290893 69.3703432,64.3417449 C69.3074487,64.3547839 69.2426367,64.3605365 69.1789752,64.3605365 Z" id="Shape" fill="#0752A1" fill-rule="nonzero"></path>
                <path d="M60.6893737,84.8553098 C60.4377958,84.8553098 60.1866015,84.7594342 59.9948502,84.5676828 C57.5454177,82.1182504 56.1966384,78.8569425 56.1966384,75.3843246 C56.1966384,71.9117066 57.5454177,68.6503988 59.9948502,66.2013499 C61.4467917,64.7494084 63.1591317,63.6901736 65.0850829,63.0527919 C65.5997436,62.8821331 66.1550556,63.1617066 66.3253309,63.6767509 C66.4959897,64.1914118 66.2167997,64.7467238 65.7017554,64.9169991 C64.0695674,65.4573545 62.6164752,66.3566685 61.3831302,67.5896301 C59.3045451,69.6682153 58.1597892,72.4363385 58.1597892,75.3843246 C58.1597892,78.3326941 59.3045451,81.1008174 61.3831302,83.1794026 C61.766633,83.562522 61.766633,84.18418 61.3831302,84.5676828 C61.1917624,84.7594342 60.940568,84.8553098 60.6893737,84.8553098 L60.6893737,84.8553098 Z" id="Shape" fill="#0752A1" fill-rule="nonzero"></path>
                <path d="M69.9222918,1.35583403 L75.0159132,11.6768468 C75.370121,12.3946829 76.0549856,12.8920811 76.847243,13.0070102 L88.2374735,14.6621781 C90.2327186,14.9523271 91.0287441,17.4035205 89.5855357,18.8099893 L81.3436097,26.8437239 C80.7708482,27.4023549 80.5089605,28.2078008 80.6446145,28.99629 L82.5899314,40.3403605 C82.9309506,42.3271272 80.8452695,43.8419308 79.0610418,42.904599 L68.873799,37.5490899 C68.1653834,37.1769833 67.3184876,37.1769833 66.610072,37.5490899 L56.4228291,42.904599 C54.6386015,43.8428729 52.5529204,42.3271272 52.8939396,40.3403605 L54.8392564,28.99629 C54.9749105,28.2078008 54.7130228,27.4023549 54.1402612,26.8437239 L45.8983353,18.8099893 C44.4551268,17.4025784 45.2511524,14.951385 47.2463975,14.6621781 L58.636628,13.0070102 C59.4288853,12.8920811 60.1137499,12.3946829 60.4679577,11.6768468 L65.5615791,1.35583403 C66.4527509,-0.451944677 69.030178,-0.451944677 69.9222918,1.35583403 Z" id="star" stroke="#0752A1" stroke-width="3" fill-rule="nonzero"></path>
                <path d="M24.7610015,30.3880921 L29.8546229,40.7091049 C30.2088307,41.4269409 30.8936953,41.9243391 31.6859527,42.0392683 L43.0761832,43.6944362 C45.0714283,43.9845851 45.8674538,46.4357785 44.4242454,47.8422473 L36.1823194,55.875982 C35.6095578,56.4346129 35.3476701,57.2400589 35.4833242,58.0285481 L37.4286411,69.3726186 C37.7696603,71.3593853 35.6839792,72.8741889 33.8997515,71.9368571 L23.7125087,66.581348 C23.0040931,66.2092413 22.1571973,66.2092413 21.4487816,66.581348 L11.2615388,71.9368571 C9.47731116,72.8751309 7.39163004,71.3593853 7.73264927,69.3726186 L9.67796612,58.0285481 C9.81362017,57.2400589 9.55173248,56.4346129 8.97897091,55.875982 L0.737044948,47.8422473 C-0.706163484,46.4348365 0.0898620549,43.9836431 2.08510713,43.6944362 L13.4753377,42.0392683 C14.267595,41.9243391 14.9524596,41.4269409 15.3066674,40.7091049 L20.4002888,30.3880921 C21.2914606,28.5803134 23.8688877,28.5803134 24.7610015,30.3880921 Z" id="star-copy" stroke="#0752A1" stroke-width="3" fill-rule="nonzero"></path>
            </g>
        </g>
    </g>
</svg>