<svg xmlns="http://www.w3.org/2000/svg" xmlns:xlink="http://www.w3.org/1999/xlink" width="142" height="125" viewBox="0 0 142 125">
    <defs>
        <path id="a" d="M.22.35h21.59v24.544H.22z"/>
        <path id="c" d="M.272.195h12.557v23.567H.272z"/>
    </defs>
    <g fill="none" fill-rule="evenodd">
        <path fill="#E50539" d="M46.558 82l-4.136 16.799c-.345 1.343-1.12 2.499-2.332 3.462-1.212.963-2.494 1.448-3.835 1.448L41.609 82h-6.62l-.684 3.291L29 107h6.436c3.14 0 6.124-1.189 8.957-3.56 2.833-2.373 4.632-5.164 5.408-8.373l2.391-9.776L53 82h-6.442z"/>
        <path fill="#E50539" d="M65.345 71.98c-.562-.652-1.31-.98-2.243-.98-.938 0-1.792.328-2.573.98-.775.651-1.241 1.434-1.393 2.343-.163.947.04 1.74.601 2.392.556.652 1.303.98 2.236.98.939 0 1.798-.334 2.58-1.001.775-.669 1.247-1.457 1.398-2.371.152-.909-.05-1.692-.606-2.343m-6.3 29.354c.012-.066.035-.148.068-.246.034-.1.057-.16.062-.198l4.804-18.706h-11.13L52 85.458h4.455l-4 15.432a2.949 2.949 0 0 0-.146.592c-.287 1.691.157 3.033 1.326 4.03 1.169.99 2.905 1.488 5.214 1.488h1l.854-3.274c-1.337-.191-1.893-.99-1.657-2.392M77.209 100.012c-.257 1.015-.824 1.887-1.701 2.61-.878.722-1.814 1.08-2.799 1.08-1.845 0-2.62-.916-2.332-2.758.006-.027.027-.11.064-.242.038-.132.06-.232.07-.298l3.065-12.646c.418-1.638 1.295-2.46 2.633-2.46h4.585l-3.585 14.714zm5.954 1.87a.937.937 0 0 1 .06-.198.85.85 0 0 0 .053-.193L88 82H76.974c-2.296 0-4.43.667-6.405 1.997-1.979 1.329-3.204 2.994-3.68 4.99l-2.665 11.025a3.357 3.357 0 0 0-.144.64c-.294 1.837.224 3.354 1.562 4.55 1.337 1.197 3.087 1.798 5.254 1.798h1c1.878 0 3.622-.672 5.238-2.019.808 1.347 2.322 2.019 4.548 2.019h2.247l.808-3.298c-1.23-.066-1.755-.673-1.574-1.82zM114.468 88.447l-.086.54-2.674 11.025c-.286 1.18-.754 2.09-1.4 2.73-.645.64-1.318.96-2.023.96-.64 0-1.13-.293-1.47-.888-.338-.59-.43-1.34-.285-2.261.01-.067.033-.155.07-.27a2.64 2.64 0 0 0 .065-.27l2.675-11.025c.269-1.081.715-1.958 1.334-2.631.62-.672 1.313-1.01 2.083-1.01.64 0 1.125.271 1.453.812.328.546.42 1.307.258 2.288m4.898-4.649c-1.33-1.197-3.078-1.798-5.258-1.798h-1.007c-2.373 0-4.536.673-6.495 2.019-1.96 1.346-3.176 3.005-3.65 4.969l-2.728 11.024a3.805 3.805 0 0 0-.145.64c-.302 1.87.22 3.392 1.571 4.578 1.346 1.18 3.127 1.77 5.334 1.77h.958c2.341 0 4.494-.684 6.474-2.04 1.98-1.363 3.202-3.012 3.676-4.948l2.723-11.024.102-.634c.291-1.842-.226-3.359-1.555-4.556"/>
        <g transform="translate(120 81)">
            <mask id="b" fill="#fff">
                <use xlink:href="#a"/>
            </mask>
            <path fill="#E50539" d="M19.587.35c-2.673 0-4.986.694-6.932 2.08l.499-2.08h-6.6L.221 24.895h6.633l3.444-13.428c.438-1.646 1.297-3.183 2.578-4.613 1.281-1.434 2.723-2.425 4.337-2.972l-.787 3.189h3.615l1.77-6.72h-2.224z" mask="url(#b)"/>
        </g>
        <path fill="#E50539" d="M16.623 89.437l.011-.073 2.981-11.716c.22-.98.68-1.791 1.381-2.424.701-.631 1.496-.948 2.364-.948.817 0 1.413.274 1.81.833.388.547.523 1.253.388 2.097l-.074.442-2.981 11.716-.021.073h-5.859zm13.569-16.583C28.706 71.62 26.708 71 24.187 71c-2.751 0-5.168.695-7.27 2.076-2.103 1.38-3.432 3.213-3.997 5.499l-2.7 10.789c-2.28 0-4.393.01-6.036.01C1.862 89.374 0 91.28 0 93.62h9.154L5.817 107h6.444l3.348-13.38h5.869l-2.082 8.302a3.153 3.153 0 0 0-.147.632c-.23 1.402.042 2.497.827 3.277.774.78 1.956 1.169 3.535 1.169h2.574l.827-3.277c-.932-.063-1.319-.568-1.161-1.506l5.89-23.642c.01-.074.03-.2.083-.39.052-.2.073-.327.084-.4.334-2.044-.241-3.688-1.716-4.931zM100.228 81.65l1.45-5.65h-6.4l-1.402 5.65h-3.14l-.815 3.213h3.147l-3.82 15.19c-.011.065-.038.178-.081.34a3.332 3.332 0 0 0-.075.337c-.267 1.628.048 2.912.942 3.857.9.94 2.253 1.413 4.067 1.413h2.247l.819-3.26c-1.316-.124-1.862-.876-1.637-2.251.01-.065.031-.145.064-.242.027-.097.048-.156.053-.193l3.816-15.191h2.723L103 81.65h-2.772zM94.217 38L80 35.067 94.213 29 97 32.441zM28 63v.019l.028-.019z"/>
        <path fill="#E50539" d="M87.73 39.881c-.51.752-1.7 2.15-3.449 1.865-.853-.144-35.6-7.164-35.686-7.17-.245-.066-.212-.587.231-.534L87.5 39.354c.244.04.377.316.231.527M86.426 27.28l-5.216 2.663s-1.212-.731.152-1.345c.351-.157 1.152-.612 1.8-.949a.471.471 0 0 0-.046-.856l-3.879-1.55c.656-.52 1.675-.83 2.648-.54.563.171 2.92 1.16 4.468 1.806.477.198.364.627.073.771m-12.294 3.56c-.556.396-4.22-.285-4.22-.285s4.054-3.587 7.91-4.046c1.147-.136 3.467.758 3.467.758s-5.171 2.15-7.157 3.573m39.56-.192c-1.714-3.736-2.972-6.927-3.422-7.691-1.31-2.208-3.263-2.09-4.938-1.8-4.468.765-6.21 1.55-14.087 3.632-1.158.317-3.343.956-4.547.54-3.191-1.087-4.157-1.957-5.686-1.786-2.37.27-7.243 2.551-12.531 6.4-1.656 1.186-1.464 2.602-1.755 3.538a.332.332 0 0 0 .285.428c.767.08 9.161.806 9.545.859a.347.347 0 0 1-.192-.31c0-.112.053-.224.172-.283 2.397-1.286 11.095-5.873 16.351-7.936 7.189-2.84 8.923-3.144 11.108-3.348.51-.046 1.225-.013 1.748.02.423.033.794.29.926.678.993 2.9 3.9 9.452 5.435 11.62 0 0-.271.514-.788.54-.404.008-1.224-.75-1.734-1.199a.349.349 0 0 0-.404-.026c-8.619 5.293-14.835 7.6-15.728 7.916a.296.296 0 0 1-.225-.007l-4.402-1.634s.165-.139.576-.956c.085-.191.132-.409.125-.547-.033-.699-.708-.857-1.013-.897-1.171-.145-32.635-4.765-40.525-5.536-3.35-.336-6.534 1.37-7.911 3.157l.007.046 4.468 4.636c.1.105.252.132.378.072l3.515-1.61s.482 1.483.033 1.733c-2.92 1.595-5.746 3.02-8.48 4.449-1.1.58-1.073 1.672-1.43 3.21-.15.644-.225 1.233-.225 1.233s6.13-3.059 9.883-4.845a.336.336 0 0 1 .384.073c.536.573.712.705 1.076 1.067a.33.33 0 0 1-.079.528c-.887.467-1.8.948-2.502 1.364-.556.33.009 1.43.009 1.43l10.2-4.81s.636.625-.49 1.317C55.083 47 38.997 55.165 37.613 55.2c-3.647.092-10.531-6.743-13.02-7.784-2.099-.877-4.356.553-7.421 2.346-.834.494-.325 1.687-.325 1.687l4.442-2.24s.55.632-.066 1.014c-2.151 1.358-5.262 2.716-5.74 3.059-.7.5-.431 2.847-.431 2.847l4.202-1.94c.126-.059.285-.039.344.02l9.006 8.537a10.145 10.145 0 0 0 1.668-.56l-7.513-7.955a.334.334 0 0 1 .093-.527c.767-.39 1.688-.673 2.985.316 1.092.824 4.912 3.902 8.606 3.572 1.231-.105 1.251.27 1.251.27s-1.569.752-3.43 1.767c-.92.507-.171 1.845-.171 1.845 9.519-3.888 21.242-8.726 22.884-9.431a.345.345 0 0 1 .338.046l2.753 2.175c.39.606 19.972-6.888 26.01-9.926.337-.165 3.408-.027 4.891-.04.682 0 .656.297.656.297s-49.006 19.45-61.028 19.001l-.02.013-2.561 1.095c1.503.988 1.145 2.695 3.7 1.377.152.35.331.719.517 1.114.496 1.075.496 1.081 3.746-.02 9.195-3.097 50.548-15.403 59.81-19.219 5.229-2.148 12.458-5.114 16.966-7.896 4.448-2.735 5.355-4.146 2.939-9.412M112.278 24.01c-.047.009-.102.018-.149.037a.385.385 0 0 0-.129.084l.5-.131c-.084 0-.148.01-.222.01M125.837 50.893l-.066.104-.073-.104c-.046-.066-4.593-6.67-6.237-9.227-.497-.771.086-1.157.086-1.157l.066-.04.047.06c.232.287 5.594 7.18 6.29 8.448.53.948-.086 1.876-.113 1.916m1.1-1.36c-.291-1.152-2.425-8.782-3.658-11.581L117.658 28c-.537.713-1.167 1.478-1.77 2.034-.113.091-.232.17-.37.235a1.473 1.473 0 0 1-.518.118l3.029 9.814c.45 1.577 1.505 2.917 2.413 4.277.457.673 3.678 5.414 4.918 7.232.258.38.835.392 1.087.006.45-.68.67-1.503.49-2.184"/>
        <g transform="translate(103)">
            <mask id="d" fill="#fff">
                <use xlink:href="#c"/>
            </mask>
            <path fill="#E50539" d="M7.823 12.13l-.068.04-.047-.06c-.23-.302-5.682-7.35-6.403-8.655-.527-.977.094-1.921.121-1.961l.067-.1.075.1c.047.073 4.682 6.84 6.35 9.45.505.79-.088 1.179-.095 1.185zm1.686.702c-.627-2.108-1.7-3.474-2.631-4.873A2595.75 2595.75 0 0 0 1.804.443.57.57 0 0 0 .859.45C.366 1.18.151 2.096.34 2.832c.304 1.172 2.403 8.943 3.658 11.807l5.222 9.123c.129-.14.29-.26.473-.341a1.2 1.2 0 0 1 .391-.094c.689-.047 1.768-.04 2.746-.02L9.51 12.832z" mask="url(#d)"/>
        </g>
        <path fill="#E50539" d="M113.692 26.827l-.826-1.753s-.15-.262.19-.4c.027-.012.054-.025.088-.031 0 0 3.419-.112 4.489.081.568.106.589.293.589.293l-4.53 1.81zm4.692-2.558c-1.428-.294-4.13-.313-5.748-.219-.068 0-.115 0-.176.006-.034.007-.075.013-.115.025a.3.3 0 0 0-.102.063c-.183.125-.298.368-.217.555a56.269 56.269 0 0 0 2.472 5.08c.122.231.48.269.738.169a.788.788 0 0 0 .149-.087c1.38-1.186 2.68-2.865 3.5-4.531.25-.524.095-.937-.5-1.061zM101.038 24s-.612 2.533-1.575 5.458l-1.784-2.259-1.446.659 2.63 3.335c-.82 2.25-1.81 4.488-2.863 5.807l2.636-1.2c.6-.558 1.085-1.686 1.462-3.038l1.448 1.837 1.454-.663-2.455-3.109c.531-2.81.683-5.867.493-6.827M90.25 118h-38.5c-.962 0-1.75-.9-1.75-2s.788-2 1.75-2h38.5c.962 0 1.75.9 1.75 2s-.788 2-1.75 2M83.249 125H58.75c-.963 0-1.751-.9-1.751-2s.788-2 1.751-2H83.25c.963 0 1.751.9 1.751 2s-.788 2-1.751 2"/>
    </g>
</svg>
